# xmcd CD database file
#
# Track frame offsets:
#	150
#	22403
#	48332
#	70503
#	94388
#	120295
#	145018
#	167153
#	183655
#	202988
#	225273
#
# Disc length: 3275 seconds
#
# Revision: 3
# Processed by: cddbd v1.5.2PL0 Copyright (c) Steve Scherf et al.
# Submitted via: CDex 1.70beta2
#
DISCID=8f0cc90b
DTITLE=Miki Imai - Aqua
DYEAR=2001
DGENRE=Vocal
TTITLE0=Aqua
TTITLE1=Flashback
TTITLE2=Two Hearts
TTITLE3=Shiosai
TTITLE4=Dragonfly
TTITLE5=Shiesuta
TTITLE6=Natuzora
TTITLE7=nekonouta
TTITLE8=Johnny Can't Play Guitar
TTITLE9=Shiawase
TTITLE10=Oval
EXTD=YEAR: 2001
EXTT0=
EXTT1=
EXTT2=
EXTT3=
EXTT4=
EXTT5=
EXTT6=
EXTT7=
EXTT8=
EXTT9=
EXTT10=
PLAYORDER=
